<svg xmlns="http://www.w3.org/2000/svg" width="20.001" height="20.001" viewBox="0 0 20.001 20.001">
    <g id="Icon" transform="translate(0 0)">
        <rect id="Area" width="20" height="20" fill="#fcfcfc" opacity="0"/>
        <g id="Icon-2" transform="translate(0.833 0.833)">
            <circle id="Path" cx="2.5" cy="2.5" r="2.5" transform="translate(6.667 6.667)" fill="none" stroke="#fff" stroke-linecap="round" stroke-linejoin="round" stroke-width="1.667"/>
            <path id="Path-2" d="M16.167,12.5a1.376,1.376,0,0,0,.275,1.517l.05.05a1.668,1.668,0,1,1-2.359,2.358l-.05-.05a1.386,1.386,0,0,0-2.35.983V17.5a1.667,1.667,0,1,1-3.333,0v-.075a1.375,1.375,0,0,0-.9-1.258,1.376,1.376,0,0,0-1.517.275l-.05.05a1.668,1.668,0,1,1-2.358-2.359l.05-.05a1.386,1.386,0,0,0-.983-2.35H2.5A1.667,1.667,0,1,1,2.5,8.4h.075a1.375,1.375,0,0,0,1.258-.9,1.376,1.376,0,0,0-.275-1.517l-.05-.05A1.668,1.668,0,1,1,5.867,3.575l.05.05A1.374,1.374,0,0,0,7.433,3.9H7.5a1.374,1.374,0,0,0,.833-1.258V2.5a1.667,1.667,0,1,1,3.334,0v.075a1.386,1.386,0,0,0,2.35.983l.05-.05a1.668,1.668,0,1,1,2.358,2.359l-.05.05A1.374,1.374,0,0,0,16.1,7.433V7.5a1.374,1.374,0,0,0,1.258.833H17.5a1.667,1.667,0,1,1,0,3.334h-.075A1.374,1.374,0,0,0,16.167,12.5Z" transform="translate(-0.833 -0.833)" fill="none" stroke="#fff" stroke-linecap="round" stroke-linejoin="round" stroke-width="1.667"/>
        </g>
    </g>
</svg>