<svg xmlns="http://www.w3.org/2000/svg" fill="#f2f2f2" width="25.931" height="24.405" viewBox="0 0 25.931 24.405">
    <path id="Icon_awesome-chart-pie"  d="M25.158,13.728H13.847l7.533,7.533a.765.765,0,0,0,1.058.032,11.416,11.416,0,0,0,3.486-6.714.764.764,0,0,0-.766-.851ZM24.4,10.639A11.467,11.467,0,0,0,13.766,0a.767.767,0,0,0-.8.772V11.44H23.632a.767.767,0,0,0,.772-.8ZM10.677,13.728V2.417a.764.764,0,0,0-.85-.766A11.432,11.432,0,0,0,.007,13.364,11.581,11.581,0,0,0,11.584,24.4a11.351,11.351,0,0,0,6.447-2.1.757.757,0,0,0,.075-1.148Z" transform="translate(0 0)"/>
</svg>