<svg xmlns="http://www.w3.org/2000/svg" width="49.25" height="49.25" viewBox="0 0 49.25 49.25">
    <path id="Icon_ionic-ios-refresh-circle" data-name="Icon ionic-ios-refresh-circle" d="M28,3.375a24.625,24.625,0,1,0,17.974,41.46A24.355,24.355,0,0,0,52.625,28,24.621,24.621,0,0,0,28,3.375Zm0,39.791a15.166,15.166,0,0,1,0-30.331V8.454a.947.947,0,0,1,1.468-.793L38.1,13.888a.952.952,0,0,1-.047,1.61L29.421,20.98A.948.948,0,0,1,28,20.163V15.2A12.8,12.8,0,1,0,40.751,29.077,1.165,1.165,0,0,1,41.923,28h0a1.169,1.169,0,0,1,1.172,1.267A15.126,15.126,0,0,1,28,43.166Z" transform="translate(-3.375 -3.375)" fill="#24588d"/>
</svg>
