<svg xmlns="http://www.w3.org/2000/svg" width="29.25" height="29.25" viewBox="0 0 29.25 29.25">
  <path id="Icon_ionic-ios-refresh-circle"  d="M18,3.375A14.625,14.625,0,1,0,32.625,18,14.623,14.623,0,0,0,18,3.375Zm0,23.632A9.007,9.007,0,0,1,18,8.993v-2.6a.563.563,0,0,1,.872-.471L24,9.619a.566.566,0,0,1-.028.956L18.844,13.83A.563.563,0,0,1,18,13.345V10.4a7.6,7.6,0,1,0,7.573,8.241.692.692,0,0,1,.7-.64h0a.7.7,0,0,1,.7.752A8.984,8.984,0,0,1,18,27.007Z" transform="translate(-3.375 -3.375)" fill="#5094dd"/>
</svg>
